<svg width="1324" height="248" viewBox="0 0 1324 248" fill="none" xmlns="http://www.w3.org/2000/svg">
<path d="M23.6364 55.3636H45.0909V205.182C45.0909 213.788 43.6061 221.242 40.6364 227.545C37.7273 233.848 33.303 238.727 27.3636 242.182C21.4848 245.636 14.0606 247.364 5.09091 247.364C4.36364 247.364 3.63636 247.364 2.90909 247.364C2.18182 247.364 1.45455 247.364 0.727273 247.364V227.364C1.45455 227.364 2.12121 227.364 2.72727 227.364C3.33333 227.364 4 227.364 4.72727 227.364C11.2727 227.364 16.0606 225.424 19.0909 221.545C22.1212 217.727 23.6364 212.273 23.6364 205.182V55.3636ZM34.1818 32.0909C30 32.0909 26.3939 30.6667 23.3636 27.8182C20.3939 24.9697 18.9091 21.5455 18.9091 17.5455C18.9091 13.5455 20.3939 10.1212 23.3636 7.27272C26.3939 4.42424 30 3 34.1818 3C38.3636 3 41.9394 4.42424 44.9091 7.27272C47.9394 10.1212 49.4545 13.5455 49.4545 17.5455C49.4545 21.5455 47.9394 24.9697 44.9091 27.8182C41.9394 30.6667 38.3636 32.0909 34.1818 32.0909ZM183.295 86.6364L164.023 92.0909C162.811 88.8788 161.023 85.7576 158.659 82.7273C156.356 79.6364 153.205 77.0909 149.205 75.0909C145.205 73.0909 140.083 72.0909 133.841 72.0909C125.295 72.0909 118.174 74.0606 112.477 78C106.841 81.8788 104.023 86.8182 104.023 92.8182C104.023 98.1515 105.962 102.364 109.841 105.455C113.72 108.545 119.78 111.121 128.023 113.182L148.75 118.273C161.235 121.303 170.538 125.939 176.659 132.182C182.78 138.364 185.841 146.333 185.841 156.091C185.841 164.091 183.538 171.242 178.932 177.545C174.386 183.848 168.023 188.818 159.841 192.455C151.659 196.091 142.144 197.909 131.295 197.909C117.053 197.909 105.265 194.818 95.9318 188.636C86.5985 182.455 80.6894 173.424 78.2045 161.545L98.5682 156.455C100.508 163.97 104.174 169.606 109.568 173.364C115.023 177.121 122.144 179 130.932 179C140.932 179 148.871 176.879 154.75 172.636C160.689 168.333 163.659 163.182 163.659 157.182C163.659 152.333 161.962 148.273 158.568 145C155.174 141.667 149.962 139.182 142.932 137.545L119.659 132.091C106.871 129.061 97.4773 124.364 91.4773 118C85.5379 111.576 82.5682 103.545 82.5682 93.9091C82.5682 86.0303 84.7803 79.0606 89.2045 73C93.6894 66.9394 99.7803 62.1818 107.477 58.7273C115.235 55.2727 124.023 53.5455 133.841 53.5455C147.659 53.5455 158.508 56.5758 166.386 62.6364C174.326 68.697 179.962 76.697 183.295 86.6364ZM274.864 197.909C261.773 197.909 250.5 194.818 241.045 188.636C231.591 182.455 224.318 173.939 219.227 163.091C214.136 152.242 211.591 139.848 211.591 125.909C211.591 111.727 214.197 99.2121 219.409 88.3636C224.682 77.4545 232.015 68.9394 241.409 62.8182C250.864 56.6364 261.894 53.5455 274.5 53.5455C284.318 53.5455 293.167 55.3636 301.045 59C308.924 62.6364 315.379 67.7273 320.409 74.2727C325.439 80.8182 328.561 88.4545 329.773 97.1818H308.318C306.682 90.8182 303.045 85.1818 297.409 80.2727C291.833 75.303 284.318 72.8182 274.864 72.8182C266.5 72.8182 259.167 75 252.864 79.3636C246.621 83.6667 241.742 89.7576 238.227 97.6364C234.773 105.455 233.045 114.636 233.045 125.182C233.045 135.97 234.742 145.364 238.136 153.364C241.591 161.364 246.439 167.576 252.682 172C258.985 176.424 266.379 178.636 274.864 178.636C280.439 178.636 285.5 177.667 290.045 175.727C294.591 173.788 298.439 171 301.591 167.364C304.742 163.727 306.985 159.364 308.318 154.273H329.773C328.561 162.515 325.561 169.939 320.773 176.545C316.045 183.091 309.773 188.303 301.955 192.182C294.197 196 285.167 197.909 274.864 197.909ZM417.864 197.909C405.258 197.909 394.197 194.909 384.682 188.909C375.227 182.909 367.833 174.515 362.5 163.727C357.227 152.939 354.591 140.333 354.591 125.909C354.591 111.364 357.227 98.6667 362.5 87.8182C367.833 76.9697 375.227 68.5455 384.682 62.5455C394.197 56.5455 405.258 53.5455 417.864 53.5455C430.47 53.5455 441.5 56.5455 450.955 62.5455C460.47 68.5455 467.864 76.9697 473.136 87.8182C478.47 98.6667 481.136 111.364 481.136 125.909C481.136 140.333 478.47 152.939 473.136 163.727C467.864 174.515 460.47 182.909 450.955 188.909C441.5 194.909 430.47 197.909 417.864 197.909ZM417.864 178.636C427.439 178.636 435.318 176.182 441.5 171.273C447.682 166.364 452.258 159.909 455.227 151.909C458.197 143.909 459.682 135.242 459.682 125.909C459.682 116.576 458.197 107.879 455.227 99.8182C452.258 91.7576 447.682 85.2424 441.5 80.2727C435.318 75.303 427.439 72.8182 417.864 72.8182C408.288 72.8182 400.409 75.303 394.227 80.2727C388.045 85.2424 383.47 91.7576 380.5 99.8182C377.53 107.879 376.045 116.576 376.045 125.909C376.045 135.242 377.53 143.909 380.5 151.909C383.47 159.909 388.045 166.364 394.227 171.273C400.409 176.182 408.288 178.636 417.864 178.636ZM566.614 197.909C554.977 197.909 544.705 194.97 535.795 189.091C526.886 183.152 519.917 174.788 514.886 164C509.856 153.152 507.341 140.333 507.341 125.545C507.341 110.879 509.856 98.1515 514.886 87.3636C519.917 76.5758 526.917 68.2424 535.886 62.3636C544.856 56.4848 555.22 53.5455 566.977 53.5455C576.068 53.5455 583.25 55.0606 588.523 58.0909C593.856 61.0606 597.917 64.4545 600.705 68.2727C603.553 72.0303 605.765 75.1212 607.341 77.5454H609.159V8.81818H630.614V195H609.886V173.545H607.341C605.765 176.091 603.523 179.303 600.614 183.182C597.705 187 593.553 190.424 588.159 193.455C582.765 196.424 575.583 197.909 566.614 197.909ZM569.523 178.636C578.129 178.636 585.402 176.394 591.341 171.909C597.28 167.364 601.795 161.091 604.886 153.091C607.977 145.03 609.523 135.727 609.523 125.182C609.523 114.758 608.008 105.636 604.977 97.8182C601.947 89.9394 597.462 83.8182 591.523 79.4545C585.583 75.0303 578.25 72.8182 569.523 72.8182C560.432 72.8182 552.856 75.1515 546.795 79.8182C540.795 84.4242 536.28 90.697 533.25 98.6364C530.28 106.515 528.795 115.364 528.795 125.182C528.795 135.121 530.311 144.152 533.341 152.273C536.432 160.333 540.977 166.758 546.977 171.545C553.038 176.273 560.553 178.636 569.523 178.636ZM731.432 197.909C717.977 197.909 706.371 194.939 696.614 189C686.917 183 679.432 174.636 674.159 163.909C668.947 153.121 666.341 140.576 666.341 126.273C666.341 111.97 668.947 99.3636 674.159 88.4545C679.432 77.4848 686.765 68.9394 696.159 62.8182C705.614 56.6364 716.644 53.5455 729.25 53.5455C736.523 53.5455 743.705 54.7576 750.795 57.1818C757.886 59.6061 764.341 63.5455 770.159 69C775.977 74.3939 780.614 81.5455 784.068 90.4545C787.523 99.3636 789.25 110.333 789.25 123.364V132.455H681.614V113.909H767.432C767.432 106.03 765.856 99 762.705 92.8182C759.614 86.6364 755.189 81.7576 749.432 78.1818C743.735 74.6061 737.008 72.8182 729.25 72.8182C720.705 72.8182 713.311 74.9394 707.068 79.1818C700.886 83.3636 696.129 88.8182 692.795 95.5454C689.462 102.273 687.795 109.485 687.795 117.182V129.545C687.795 140.091 689.614 149.03 693.25 156.364C696.947 163.636 702.068 169.182 708.614 173C715.159 176.758 722.765 178.636 731.432 178.636C737.068 178.636 742.159 177.848 746.705 176.273C751.311 174.636 755.28 172.212 758.614 169C761.947 165.727 764.523 161.667 766.341 156.818L787.068 162.636C784.886 169.667 781.22 175.848 776.068 181.182C770.917 186.455 764.553 190.576 756.977 193.545C749.402 196.455 740.886 197.909 731.432 197.909ZM920.795 86.6364L901.523 92.0909C900.311 88.8788 898.523 85.7576 896.159 82.7273C893.856 79.6364 890.705 77.0909 886.705 75.0909C882.705 73.0909 877.583 72.0909 871.341 72.0909C862.795 72.0909 855.674 74.0606 849.977 78C844.341 81.8788 841.523 86.8182 841.523 92.8182C841.523 98.1515 843.462 102.364 847.341 105.455C851.22 108.545 857.28 111.121 865.523 113.182L886.25 118.273C898.735 121.303 908.038 125.939 914.159 132.182C920.28 138.364 923.341 146.333 923.341 156.091C923.341 164.091 921.038 171.242 916.432 177.545C911.886 183.848 905.523 188.818 897.341 192.455C889.159 196.091 879.644 197.909 868.795 197.909C854.553 197.909 842.765 194.818 833.432 188.636C824.098 182.455 818.189 173.424 815.705 161.545L836.068 156.455C838.008 163.97 841.674 169.606 847.068 173.364C852.523 177.121 859.644 179 868.432 179C878.432 179 886.371 176.879 892.25 172.636C898.189 168.333 901.159 163.182 901.159 157.182C901.159 152.333 899.462 148.273 896.068 145C892.674 141.667 887.462 139.182 880.432 137.545L857.159 132.091C844.371 129.061 834.977 124.364 828.977 118C823.038 111.576 820.068 103.545 820.068 93.9091C820.068 86.0303 822.28 79.0606 826.705 73C831.189 66.9394 837.28 62.1818 844.977 58.7273C852.735 55.2727 861.523 53.5455 871.341 53.5455C885.159 53.5455 896.008 56.5758 903.886 62.6364C911.826 68.697 917.462 76.697 920.795 86.6364ZM977.091 111V195H955.636V8.81818H977.091V77.1818H978.909C982.182 69.9697 987.091 64.2424 993.636 60C1000.24 55.697 1009.03 53.5455 1020 53.5455C1029.52 53.5455 1037.85 55.4545 1045 59.2727C1052.15 63.0303 1057.7 68.8182 1061.64 76.6364C1065.64 84.3939 1067.64 94.2727 1067.64 106.273V195H1046.18V107.727C1046.18 96.6364 1043.3 88.0606 1037.55 82C1031.85 75.8788 1023.94 72.8182 1013.82 72.8182C1006.79 72.8182 1000.48 74.303 994.909 77.2727C989.394 80.2424 985.03 84.5758 981.818 90.2727C978.667 95.9697 977.091 102.879 977.091 111ZM1106.89 195V55.3636H1128.34V195H1106.89ZM1117.8 32.0909C1113.61 32.0909 1110.01 30.6667 1106.98 27.8182C1104.01 24.9697 1102.52 21.5455 1102.52 17.5455C1102.52 13.5455 1104.01 10.1212 1106.98 7.27272C1110.01 4.42424 1113.61 3 1117.8 3C1121.98 3 1125.55 4.42424 1128.52 7.27272C1131.55 10.1212 1133.07 13.5455 1133.07 17.5455C1133.07 21.5455 1131.55 24.9697 1128.52 27.8182C1125.55 30.6667 1121.98 32.0909 1117.8 32.0909ZM1229.82 55.3636V73.5454H1154.55V55.3636H1229.82ZM1177.09 195V36.0909C1177.09 28.0909 1178.97 21.4242 1182.73 16.0909C1186.48 10.7576 1191.36 6.75756 1197.36 4.0909C1203.36 1.42423 1209.7 0.0908966 1216.36 0.0908966C1221.64 0.0908966 1225.94 0.515142 1229.27 1.36363C1232.61 2.21211 1235.09 2.99999 1236.73 3.72726L1230.55 22.2727C1229.45 21.9091 1227.94 21.4545 1226 20.9091C1224.12 20.3636 1221.64 20.0909 1218.55 20.0909C1211.45 20.0909 1206.33 21.8788 1203.18 25.4545C1200.09 29.0303 1198.55 34.2727 1198.55 41.1818V195H1177.09ZM1320.61 55.3636V73.5454H1248.25V55.3636H1320.61ZM1269.34 21.9091H1290.8V155C1290.8 161.061 1291.67 165.606 1293.43 168.636C1295.25 171.606 1297.55 173.606 1300.34 174.636C1303.19 175.606 1306.19 176.091 1309.34 176.091C1311.7 176.091 1313.64 175.97 1315.16 175.727C1316.67 175.424 1317.89 175.182 1318.8 175L1323.16 194.273C1321.7 194.818 1319.67 195.364 1317.07 195.909C1314.46 196.515 1311.16 196.818 1307.16 196.818C1301.1 196.818 1295.16 195.515 1289.34 192.909C1283.58 190.303 1278.8 186.333 1274.98 181C1271.22 175.667 1269.34 168.939 1269.34 160.818V21.9091Z" fill="black"/>
</svg>
